<?xml version="1.0" encoding="utf-8"?>
<!-- Generator: Adobe Illustrator 24.2.0, SVG Export Plug-In . SVG Version: 6.00 Build 0)  -->
<svg version="1.1" id="Layer_1" xmlns="http://www.w3.org/2000/svg" xmlns:xlink="http://www.w3.org/1999/xlink" x="0px" y="0px"
	 viewBox="0 0 39.2 40" style="enable-background:new 0 0 39.2 40;" xml:space="preserve">
<style type="text/css">
	.st0{fill:#FFFFFF;}
	.st1{fill:#006241;}
</style>
<g id="Layer_2_1_">
	<g id="_300x250">
		<path class="st0" d="M39.2,19.6c0,10.8-8.8,19.6-19.6,19.6S0,30.4,0,19.6S8.8,0,19.6,0l0,0C30.4,0,39.2,8.8,39.2,19.6L39.2,19.6z"
			/>
		<path class="st1" d="M31.8,16.3c2.8-1,4.7,1.8,6.8,1.2c-2.1-2.2-3.8-4.8-3.6-7.7c0-0.1,0-0.2-0.1-0.2s-0.1,0-0.2,0
			c-1.1,0.8-1.8,2-2,3.4c-1.4-0.9-3.1-1.2-4.7-0.6C29.5,13.5,30.8,14.8,31.8,16.3z M28.6,7.7c-1.3,0-2.6,0.5-3.6,1.4
			c0.4-1.2,1-2.3,1.7-3.3c-1.7,0.1-3.3,0.8-4.5,2l-0.9-2.3l1.9-1.7l-2.6-0.2l-1-2.4l-1,2.4L16,3.8l1.9,1.7L17,7.8
			c-1.2-1.2-2.8-1.9-4.5-2c0.7,1,1.2,2.1,1.7,3.3c-1.1-0.8-2.3-1.3-3.7-1.4c0.9,1.1,1.6,2.3,2.2,3.6c0,0.1,0.2,0.2,0.3,0.1l0,0
			c4.1-2,8.9-2,13,0c0.1,0.1,0.3,0,0.3-0.1l0,0C27,9.9,27.8,8.7,28.6,7.7L28.6,7.7z M16.1,14.5c0.6-0.4,1.4-0.4,2-0.1
			c0-0.4-0.7-0.9-1.5-0.9c-0.5,0-0.8,0.2-0.8,0.4C15.9,14.2,16,14.4,16.1,14.5L16.1,14.5z M22.5,13.6c-0.5,0-0.9,0.2-1.3,0.5
			c0,0.1,0,0.2,0,0.3c0.8-0.3,1.5-0.3,1.8,0.1c0.1-0.1,0.2-0.3,0.2-0.5C23.3,13.8,23,13.6,22.5,13.6L22.5,13.6z M19.6,10.7
			c-1.6-0.1-3.1,0.8-3.8,2.3c0,0.1,0,0.2,0.1,0.1c0.4-0.1,0.7-0.2,1.1-0.2c0.7,0,1.3,0.2,1.8,0.7c0.2,0.6,0.2,1.2,0,1.9
			c-0.3-0.1-0.4-0.3-0.7-0.3s-0.5,0.2-1,0.2s-0.6-0.2-0.9-0.2s-0.5,0.4-0.5,0.9c0,2,1.9,4.8,3.8,4.8s3.8-2.8,3.8-4.8
			c0-0.4-0.1-0.8-0.5-0.9c-0.2,0.2-0.5,0.3-0.9,0.3c-0.5,0-0.6-0.2-1-0.2s-0.3,0.8-0.8,0.8c-0.3-0.8-0.3-1.6-0.1-2.3
			c0.5-0.5,1.1-0.8,1.8-0.7c0.4,0,0.8,0.1,1.1,0.2c0.1,0.1,0.1,0,0.1-0.1C22.8,11.5,21.3,10.5,19.6,10.7L19.6,10.7z M11.2,12.4
			C9.6,11.8,7.9,12,6.5,13c-0.2-1.4-0.9-2.6-2.1-3.4c-0.1-0.1-0.2-0.1-0.2,0c0,0-0.1,0.1,0,0.2c0.2,2.9-1.5,5.5-3.6,7.7
			c2.2,0.6,4-2.1,6.8-1.2C8.4,14.8,9.7,13.5,11.2,12.4z M39.2,20.7c0,0.5-0.1,0.9-0.1,1.4c-2.2,0.4-3-1.6-5.3-1.5
			c0.1,0.5,0.2,1,0.3,1.5c1.9,0,2.6,1.8,4.7,1.5c-0.1,0.5-0.2,1.1-0.4,1.6c-1.6,0.2-2.2-1.5-4.1-1.4c0,0.3,0,0.5,0,0.8v0.5
			c1.6,0,2.2,1.5,3.7,1.4c-0.2,0.5-0.4,1-0.7,1.5c-1.1-0.1-1.5-1.5-3.2-1.4c0,0.4-0.1,0.7-0.2,1.1c1.5-0.1,1.8,1.3,2.8,1.4
			c-0.3,0.5-0.6,1-0.9,1.4c-0.6-0.3-1.2-1.3-2.3-1.4c0.1-0.4,0.2-0.8,0.3-1.1c-1.2,0-2.4-0.5-3.3-1.3c0.3-1.9-2.6-3.8-2.6-5.1
			s0.8-2.3,0.8-4.3c-0.1-1.6-0.7-3-1.8-4.1c-0.2-0.2-0.4-0.4-0.7-0.5c1.1,1.2,1.7,2.8,1.8,4.4c0,1.9-0.9,2.9-0.9,4.6s2.5,3.2,2.5,5
			c-0.1,1-0.4,1.9-1,2.7c0.9,1,2.2,1.6,3.6,1.8c0.2,0,0.5-0.1,0.6-0.3c0.1-0.2,0.2-0.4,0.3-0.6c1,0,1.5,1,2.1,1.4
			c-0.3,0.4-0.6,0.8-1,1.2c-0.4-0.6-1-1.1-1.7-1.3c-0.1,0.3-0.3,0.5-0.4,0.8c0.7,0.2,1.1,0.8,1.4,1.2c-0.4,0.4-0.8,0.8-1.2,1.1
			c-0.3-0.5-0.6-0.8-1.1-1.2c-0.2,0.2-0.3,0.4-0.5,0.6c0.4,0.3,0.7,0.7,0.9,1.1c-0.5,0.4-0.9,0.7-1.4,1c-0.2-2-3-3.3-2.2-5.7
			c-0.3,0.5-0.5,1-0.5,1.5c0,1.7,1.8,3,1.9,4.6c-0.4,0.2-0.8,0.4-1.1,0.6c-0.1-1.8-2-3.8-2-5.3c0-1.7,2.2-3.4,2.2-5.3
			S26,23.3,26,21.5s1.1-2.7,1.1-4.9c0-1.7-0.8-3.2-2-4.3c-0.2-0.2-0.4-0.3-0.7-0.5c1.2,1.2,1.9,2.8,1.9,4.4c0,2.1-1.2,3.3-1.2,5.3
			s2.5,3.2,2.5,5.1s-2.3,3.5-2.3,5.5c0,1.8,2,3.6,2.1,5.7c-0.5,0.2-0.9,0.4-1.4,0.5c0.3-2.1-2-4.3-2-6.1c0-1.9,2.4-3.5,2.4-5.6
			s-2.4-3-2.4-5.1s1.5-3.3,1.5-5.6c0-1.7-0.8-3.4-2.2-4.5l-0.1-0.1c-0.1-0.1-0.2,0-0.1,0.1c1,1.1,1.5,2.6,1.4,4.1
			c0,2.1-1.7,3.9-1.7,5.9c0,2.4,2.3,3.1,2.3,5.1s-2.5,3.6-2.5,5.7s2.3,4.2,1.9,6.4c-0.5,0.1-0.9,0.2-1.4,0.3
			c0.4-2.8-1.9-4.9-1.9-6.7s2.6-3.8,2.6-5.8S22,24,21.7,22.1c0-0.2-0.2-0.4-0.4-0.4c0,0,0,0-0.1,0c-0.5,0.2-1.1,0.3-1.6,0.3
			s-1.1-0.1-1.6-0.3c-0.2,0-0.5,0.1-0.5,0.3c0,0,0,0,0,0.1c-0.2,1.9-2.1,2.5-2.1,4.3s2.6,3.8,2.6,5.8s-2.3,3.8-1.9,6.7
			c-0.5-0.1-0.9-0.2-1.4-0.3c-0.4-2.3,1.9-4.5,1.9-6.4s-2.5-3.7-2.5-5.7s2.3-2.7,2.3-5.1c0-2.1-1.7-3.8-1.7-5.9
			c0-1.5,0.5-2.9,1.4-4.1c0.1-0.1,0-0.2-0.1-0.1l-0.1,0.1c-1.4,1.1-2.2,2.7-2.2,4.5c0,2.3,1.5,3.5,1.5,5.6s-2.4,3.1-2.4,5.1
			s2.4,3.7,2.4,5.6c0,1.7-2.3,4-2,6.1c-0.5-0.2-0.9-0.3-1.4-0.5c0-2.1,2.1-3.9,2.1-5.7c0-2-2.3-3.6-2.3-5.5s2.5-3,2.5-5.1
			s-1.2-3.2-1.2-5.3c0-1.7,0.6-3.2,1.8-4.4c-0.2,0.1-0.5,0.3-0.7,0.5c-1.2,1.1-2,2.7-2,4.3c0,2.2,1.1,3.2,1.1,5s-2.5,3.1-2.5,5.1
			s2.2,3.7,2.2,5.3c0,1.5-1.9,3.5-1.9,5.3c-0.4-0.2-0.8-0.4-1.1-0.6c0.1-1.7,1.9-3,1.9-4.6c0-0.5-0.2-1.1-0.5-1.5
			c0.7,2.3-2,3.7-2.2,5.7c-0.5-0.3-1-0.7-1.4-1c0.2-0.4,0.5-0.8,0.9-1.1C8.3,34,8.2,33.8,8,33.6c-0.4,0.3-0.8,0.7-1.1,1.2
			c-0.4-0.4-0.8-0.7-1.2-1.1c0.3-0.4,0.8-1.1,1.4-1.3c-0.2-0.3-0.3-0.5-0.4-0.8C6,31.9,5.5,32.3,5,32.9c-0.3-0.4-0.7-0.8-1-1.2
			C4.4,31,4.9,30,5.9,30c0.1,0.2,0.2,0.4,0.3,0.6c0.1,0.2,0.3,0.4,0.6,0.3c1.4-0.1,2.6-0.8,3.6-1.8c-0.6-0.8-0.9-1.8-1-2.7
			c0-1.8,2.5-3.3,2.5-5S11,18.7,11,16.9c0.1-1.6,0.7-3.2,1.8-4.4c-0.2,0.2-0.5,0.3-0.7,0.5c-1.1,1.1-1.7,2.6-1.8,4.2
			c0,2,0.8,2.8,0.8,4.3s-2.9,3.3-2.6,5.1c-0.9,0.8-2,1.3-3.3,1.3c0.1,0.4,0.2,0.8,0.3,1.1c-1.2,0.1-1.7,1.1-2.3,1.4
			C2.9,30,2.6,29.5,2.4,29c1-0.1,1.4-1.5,2.8-1.4c-0.1-0.4-0.1-0.7-0.2-1.1c-1.7-0.2-2,1.3-3.2,1.3c-0.2-0.5-0.4-1-0.6-1.5
			c1.5,0.1,2.1-1.4,3.7-1.4v-0.5c0-0.3,0-0.5,0-0.8C3,23.5,2.4,25.2,0.8,25c-0.2-0.5-0.3-1.1-0.4-1.6C2.5,23.8,3.2,22,5.1,22
			c0.1-0.5,0.2-1,0.3-1.5c-2.3-0.1-3.1,1.9-5.3,1.5c0-0.5-0.1-0.9-0.1-1.4c2.6,0.3,3.5-1.8,5.9-1.6c0.2-0.6,0.5-1.1,0.8-1.6
			c-3-0.4-3.9,2-6.7,1.6C0.2,8.2,9.2-0.4,20-0.1C30.5,0.1,38.9,8.5,39.2,19c-2.7,0.4-3.7-2.1-6.7-1.6c0.3,0.5,0.5,1.1,0.8,1.6
			C35.6,18.8,36.6,20.9,39.2,20.7L39.2,20.7z M19.6,17c-0.2,0-0.3-0.1-0.5-0.1s-0.4,0.1-0.5,0.2c0,0.1,0,0.1,0.1,0.2
			c0.4,0,0.5,0.2,0.9,0.2s0.5-0.2,0.9-0.2c0,0,0.1-0.1,0.1-0.2c-0.1-0.1-0.3-0.2-0.5-0.2S19.8,17,19.6,17z M18.2,18.2
			c-0.1,0-0.1,0.1-0.1,0.1c0.4,0.3,0.7,1,1.6,1s1.1-0.7,1.5-1c0-0.1-0.1-0.1-0.1-0.1c-0.5,0.1-0.9,0.1-1.4,0.1
			C19.1,18.3,18.6,18.3,18.2,18.2z M21.5,8.5c-1.3-0.2-2.6-0.2-3.9,0c-0.1,0-0.1-0.1-0.1-0.1l2-1.5l2,1.5
			C21.6,8.4,21.5,8.5,21.5,8.5L21.5,8.5z"/>
		<path class="st0" d="M32,37.9h0.3c0.3,0,0.5,0,0.5-0.3s-0.2-0.3-0.4-0.3H32V37.9z M31.7,37h0.7c0.5,0,0.7,0.2,0.7,0.5
			S32.9,38,32.6,38l0,0l0.5,0.8h-0.3L32.3,38H32v0.8h-0.3V37z M32.3,39.4c0.8,0,1.4-0.6,1.4-1.3c0-0.8-0.6-1.4-1.3-1.4
			c-0.8,0-1.4,0.6-1.4,1.3l0,0C31,38.7,31.6,39.3,32.3,39.4L32.3,39.4z M32.3,36.4c0.9,0,1.6,0.7,1.6,1.6c0,0.9-0.7,1.6-1.6,1.6
			c-0.9,0-1.6-0.7-1.6-1.6l0,0C30.7,37.1,31.4,36.4,32.3,36.4L32.3,36.4z"/>
	</g>
</g>
</svg>
